<svg id="Layer_1" data-name="Layer 1" xmlns="http://www.w3.org/2000/svg" viewBox="0 0 432 119.9741"><title>logo</title><path d="M63.8882,72.56V69.78c8.0449-.7949,8.4424-1.2915,8.3428-11.8193l-.2979-40.522h-.3975L47.3022,71.865H45.3159L23.0679,18.8284H22.87l-1.49,28.3062c-.3975,8.144-.3975,12.5142-.2979,16.4868.1992,4.7676,2.582,5.4629,9.1377,6.1582V72.56H7.0776V69.78c5.7607-.6953,7.7471-1.7881,8.4424-5.9595.4961-3.4761,1.0928-7.8462,1.8867-18.1753l1.3906-20.6587c.8936-12.9111.3975-13.3086-8.6406-14.2026V8.0027H26.4448l22.6445,49.66,22.9434-49.66H88.9165v2.7808c-8.7393.7949-9.4346.9932-9.1367,11.2231L80.7729,57.96c.2979,10.5278.5957,11.0244,9.2363,11.8193V72.56Z" transform="translate(-7 -6.5129)"/><path d="M137.3862,50.114c0,15.9907-11.72,23.6382-21.5518,23.6382-13.6074,0-21.751-10.9253-21.751-21.95,0-16.3877,12.7129-23.8364,21.751-23.8364C128.15,27.9661,137.3862,37.7986,137.3862,50.114Zm-34.0664-1.49c0,12.5142,5.4629,21.85,13.6064,21.85,6.1582,0,11.2236-4.5684,11.2236-18.1753,0-11.62-4.668-21.0557-13.3086-21.0557C108.6831,31.2434,103.32,37.4011,103.32,48.6243Z" transform="translate(-7 -6.5129)"/><path d="M209.7905,45.3469c-5.959.8936-6.3564,1.39-6.3564,7.25v8.4424a44.6972,44.6972,0,0,0,.6953,9.3359c-6.1572,1.49-14.3018,3.6748-22.2471,3.6748-21.8506,0-36.45-13.6069-36.45-33.272,0-23.042,18.4727-34.2651,37.9395-34.2651,8.2441,0,15.8916,2.1851,19.0693,2.88.2979,3.4761.7949,8.9385,1.59,15.4937l-2.7812.5957c-2.3838-12.1167-9.9316-15.3945-19.3672-15.3945-15.1963,0-26.32,11.124-26.32,29.498,0,14.3022,8.4424,30.9878,27.6113,30.9878a19.9134,19.9134,0,0,0,8.6406-1.7876c1.9863-1.0928,3.1787-2.2847,3.1787-6.4561V53.8884c0-7.1514-.6953-7.7471-10.4287-8.5415V42.6653h25.2266Z" transform="translate(-7 -6.5129)"/><path d="M244.1558,8.0027c12.6143,0,21.95,2.582,28.1074,8.4419,4.8672,4.7676,8.3428,12.0181,8.3428,21.354,0,11.9185-4.5684,20.7578-12.2158,26.5181-7.4492,5.7607-17.2813,8.2437-29.498,8.2437H215.353V69.8787c8.542-.5957,9.3369-1.1919,9.3369-9.6338V20.4177c0-8.5415-.7949-8.939-8.4424-9.5347v-2.88ZM233.231,59.55c0,7.5483,3.2773,9.4351,10.5283,9.4351,18.5723,0,27.1143-13.9048,27.1143-29.7954,0-10.23-3.7744-19.0693-11.72-23.7378-4.47-2.88-10.23-4.0718-16.8848-4.0718-4.1719,0-6.7539.4966-7.7471,1.1919s-1.291,1.7876-1.291,5.6611Z" transform="translate(-7 -6.5129)"/><path d="M342.979,72.56V69.78c8.0449-.7949,8.4424-1.2915,8.3428-11.8193l-.2979-40.522h-.3975L326.3931,71.865h-1.9863l-22.248-53.0366H301.96l-1.49,28.3062c-.3975,8.144-.3975,12.5142-.2979,16.4868.1992,4.7676,2.582,5.4629,9.1377,6.1582V72.56H286.1685V69.78c5.7607-.6953,7.7471-1.7881,8.4424-5.9595.4961-3.4761,1.0928-7.8462,1.8867-18.1753l1.3906-20.6587c.8936-12.9111.3975-13.3086-8.6406-14.2026V8.0027h16.2881l22.6445,49.66,22.9434-49.66h16.8838v2.7808c-8.7393.7949-9.4346.9932-9.1367,11.2231l.9932,35.9536c.2979,10.5278.5957,11.0244,9.2363,11.8193V72.56Z" transform="translate(-7 -6.5129)"/><path d="M414.5894,72.56V69.78c6.2568-.7949,7.1514-1.5894,5.8594-5.4629s-3.2773-9.2368-5.4619-15.2949H393.8315c-1.5889,4.4692-3.0791,8.6406-4.37,12.812-2.1846,6.2573-1.291,7.25,6.1582,7.9458V72.56H374.0669V69.78c6.2568-.894,7.6475-1.49,11.124-10.23L405.75,7.407l3.0791-.894c6.1582,17.083,12.8125,35.9536,19.1689,53.2354,3.1777,8.5415,4.4688,9.4351,10.9248,10.0312V72.56ZM404.856,19.4246h-.1982c-3.1787,8.5415-6.3564,17.1821-9.3359,25.3262h18.2744Z" transform="translate(-7 -6.5129)"/><path d="M116.7524,126.0544v-.8081c2.3379-.23,2.4531-.375,2.4238-3.4336L119.09,110.04h-.1162l-7.04,15.812h-.5771l-6.4629-15.4082h-.0586l-.4326,8.2236c-.1152,2.3662-.1152,3.6357-.0859,4.79.0576,1.3848.75,1.5869,2.6543,1.7886v.8081h-6.7236v-.8081c1.6738-.2017,2.251-.519,2.4531-1.731.1445-1.01.3174-2.28.5479-5.28l.4043-6.002c.26-3.751.1152-3.8662-2.5107-4.126v-.8081h4.7324l6.5791,14.4272,6.665-14.4272h4.9053v.8081c-2.5391.23-2.7412.2886-2.6543,3.26l.2881,10.4453c.0869,3.0586.1738,3.2031,2.6836,3.4336v.8081Z" transform="translate(-7 -6.5129)"/><path d="M145.8628,108.1072c-1.7314.1152-2.3945.519-2.5391,1.7021a46.1471,46.1471,0,0,0-.1445,4.6743v2.395c0,3.4048-.5186,5.8574-2.1924,7.6177a7.0915,7.0915,0,0,1-5.165,1.9907,7.5343,7.5343,0,0,1-4.6172-1.3848c-1.73-1.3271-2.5391-3.4912-2.5391-6.8672v-7.2139c0-2.5967-.23-2.7124-2.51-2.9141v-.8081h7.4727v.8081c-2.2793.144-2.51.3174-2.51,2.9141V117.6c0,4.6455,1.8467,7.3,5.4248,7.3,4.1543,0,5.4531-3.4624,5.4531-8.2231v-2.1934a36.8837,36.8837,0,0,0-.2021-4.7607c-.1729-1.1255-.7793-1.4717-2.7988-1.6157v-.8081h6.8672Z" transform="translate(-7 -6.5129)"/><path d="M157.4028,111.6848c-.52-1.8467-1.2705-3.8374-3.78-3.8374a3.0278,3.0278,0,0,0-3.2031,3.1738c0,2.1064,1.3848,3.0874,3.665,4.2705,2.25,1.1543,4.9912,2.51,4.9912,5.7422,0,3.03-2.5674,5.4531-6.4053,5.4531a8.7222,8.7222,0,0,1-4.2422-1.0386,35.566,35.566,0,0,1-.7783-4.4722l.8369-.2021c.4609,1.76,1.76,4.6743,4.7314,4.6743a3.2132,3.2132,0,0,0,3.4629-3.4624c0-2.1353-1.5869-3.145-3.751-4.2993-1.8467-.981-4.7607-2.4238-4.7607-5.6846,0-2.77,2.2217-5.1357,5.9434-5.1357a11.979,11.979,0,0,1,3.6357.6636c.1152,1.0386.26,2.1641.49,3.9819Z" transform="translate(-7 -6.5129)"/><path d="M175.521,121.4954c-.1729.9521-.75,3.6646-1.01,4.5591H160.604v-.8081c2.625-.2017,2.8564-.4326,2.8564-2.77V110.9924c0-2.5967-.2314-2.6836-2.4814-2.8853v-.8081h12.8691c0,.7212.1436,2.6836.23,4.1553l-.8369.144a7.4649,7.4649,0,0,0-.9229-2.4814c-.4043-.606-1.1836-.8081-3.2607-.8081h-2.1934c-.8945,0-.9521.0581-.9521.9233v6.55h2.7129c2.5967,0,2.7412-.231,3.1162-2.1641h.8369v5.54h-.8369c-.375-2.0776-.5771-2.251-3.0879-2.251h-2.7412v5.4536c0,1.356.1738,1.9619.6924,2.3374a6.51,6.51,0,0,0,3.001.375c2.1934,0,3.001-.231,3.6357-.981a8.4167,8.4167,0,0,0,1.4141-2.7124Z" transform="translate(-7 -6.5129)"/><path d="M196.814,108.1072c-1.7314.1152-2.3955.519-2.5391,1.7021a45.8367,45.8367,0,0,0-.1445,4.6743v2.395c0,3.4048-.52,5.8574-2.1934,7.6177a7.09,7.09,0,0,1-5.165,1.9907,7.5314,7.5314,0,0,1-4.6162-1.3848c-1.7314-1.3271-2.5391-3.4912-2.5391-6.8672v-7.2139c0-2.5967-.2314-2.7124-2.5107-2.9141v-.8081H184.58v.8081c-2.2793.144-2.5107.3174-2.5107,2.9141V117.6c0,4.6455,1.8467,7.3,5.4248,7.3,4.1553,0,5.4541-3.4624,5.4541-8.2231v-2.1934a36.8837,36.8837,0,0,0-.2021-4.7607c-.1738-1.1255-.7793-1.4717-2.7988-1.6157v-.8081h6.8672Z" transform="translate(-7 -6.5129)"/><path d="M214.2095,126.0544v-.8081c2.3379-.23,2.4531-.375,2.4238-3.4336l-.0859-11.7725h-.1162l-7.04,15.812h-.5771l-6.4629-15.4082h-.0586l-.4326,8.2236c-.1152,2.3662-.1152,3.6357-.0859,4.79.0576,1.3848.75,1.5869,2.6543,1.7886v.8081h-6.7236v-.8081c1.6738-.2017,2.251-.519,2.4531-1.731.1445-1.01.3174-2.28.5479-5.28l.4043-6.002c.26-3.751.1152-3.8662-2.5107-4.126v-.8081h4.7324l6.5791,14.4272,6.665-14.4272h4.9053v.8081c-2.5391.23-2.7412.2886-2.6543,3.26l.2881,10.4453c.0869,3.0586.1738,3.2031,2.6836,3.4336v.8081Z" transform="translate(-7 -6.5129)"/><path d="M242.8579,119.5334c0,4.6455-3.4053,6.8672-6.2617,6.8672a6.25,6.25,0,0,1-6.3193-6.377,6.5768,6.5768,0,0,1,6.3193-6.9248A6.2593,6.2593,0,0,1,242.8579,119.5334ZM232.96,119.1c0,3.6357,1.5869,6.3481,3.9531,6.3481,1.7891,0,3.2607-1.3271,3.2607-5.28,0-3.376-1.3564-6.1172-3.8662-6.1172C234.519,114.051,232.96,115.84,232.96,119.1Z" transform="translate(-7 -6.5129)"/><path d="M246.4917,113.4451V112.81a8.0906,8.0906,0,0,1,.3174-2.3662,6.9669,6.9669,0,0,1,2.2217-3.376,5.8783,5.8783,0,0,1,3.1738-1.5581,3.1164,3.1164,0,0,1,2.2793.981.9412.9412,0,0,1,.1445,1.01,1.6539,1.6539,0,0,1-.5479.6924.5109.5109,0,0,1-.7793-.0864,3.6153,3.6153,0,0,0-2.3369-1.0679,1.6687,1.6687,0,0,0-1.5293.8657c-.375.5483-.6924,1.9331-.6641,4.3857v1.1543h3.4053a1,1,0,0,1-.2891,1.1255H248.771v8.31c0,2.1353.2021,2.2217,2.4814,2.4526v.7212h-6.81v-.75c1.8467-.1733,2.0488-.3174,2.0488-2.2222v-8.5117h-2.02l-.1152-.2886.7783-.8369Z" transform="translate(-7 -6.5129)"/><path d="M278.6333,118.1482c-1.7314.26-1.8467.4043-1.8467,2.1064v2.4526a12.9361,12.9361,0,0,0,.2021,2.7124,27.9964,27.9964,0,0,1-6.4639,1.0674c-6.3477,0-10.59-3.9526-10.59-9.666,0-6.6943,5.3672-9.9546,11.0225-9.9546a24.1337,24.1337,0,0,1,5.54.8364c.0869,1.01.2314,2.5972.4619,4.5015l-.8076.1733c-.6924-3.5205-2.8857-4.4727-5.627-4.4727-4.415,0-7.6465,3.2319-7.6465,8.57,0,4.1548,2.4531,9.0024,8.0215,9.0024a5.7857,5.7857,0,0,0,2.5107-.52c.5771-.3174.9229-.6636.9229-1.8755V120.63c0-2.0771-.2021-2.25-3.0293-2.4814v-.7788h7.3291Z" transform="translate(-7 -6.5129)"/><path d="M288.6138,107.2991c3.665,0,6.377.75,8.166,2.4526a8.502,8.502,0,0,1,2.4238,6.2036,9.1588,9.1588,0,0,1-3.5488,7.7041c-2.1641,1.6738-5.0205,2.395-8.57,2.395h-6.8379v-.7793c2.4814-.1729,2.7119-.3462,2.7119-2.7988v-11.57c0-2.4814-.23-2.5972-2.4521-2.77v-.8369ZM285.44,122.2747c0,2.1929.9521,2.7412,3.0586,2.7412,5.3955,0,7.877-4.04,7.877-8.6567,0-2.9717-1.0957-5.54-3.4043-6.896a8.9659,8.9659,0,0,0-4.9053-1.1831,4.7373,4.7373,0,0,0-2.251.3462c-.2881.2021-.375.52-.375,1.645Z" transform="translate(-7 -6.5129)"/><path d="M317.3208,126.0544v-.8081c2.3379-.23,2.4531-.375,2.4238-3.4336l-.0859-11.7725h-.1162l-7.04,15.812h-.5771l-6.4629-15.4082h-.0586l-.4326,8.2236c-.1152,2.3662-.1152,3.6357-.0859,4.79.0576,1.3848.75,1.5869,2.6543,1.7886v.8081h-6.7236v-.8081c1.6738-.2017,2.251-.519,2.4531-1.731.1445-1.01.3174-2.28.5479-5.28l.4043-6.002c.26-3.751.1152-3.8662-2.5107-4.126v-.8081h4.7324l6.5791,14.4272,6.665-14.4272h4.9053v.8081c-2.5391.23-2.7412.2886-2.6543,3.26l.2881,10.4453c.0869,3.0586.1738,3.2031,2.6836,3.4336v.8081Z" transform="translate(-7 -6.5129)"/><path d="M338.1216,126.0544v-.8081c1.8184-.23,2.0781-.4614,1.7031-1.5869s-.9521-2.6831-1.5879-4.4434h-6.1455c-.4619,1.2983-.8945,2.51-1.27,3.7222-.6348,1.8179-.375,2.1064,1.7891,2.3081v.8081h-6.2617v-.8081c1.8184-.2593,2.2217-.4326,3.2314-2.9717l5.9736-15.1489.8945-.2593c1.7881,4.9629,3.7217,10.4453,5.5684,15.4658.9238,2.4814,1.2988,2.7412,3.1738,2.9141v.8081Zm-2.8271-15.437h-.0576c-.9238,2.4814-1.8467,4.9917-2.7129,7.3579h5.31Z" transform="translate(-7 -6.5129)"/><rect y="84.4871" width="432" height="2"/></svg>